<svg xmlns:xlink="http://www.w3.org/1999/xlink" xmlns="http://www.w3.org/2000/svg" viewBox="0 0 60 69.24328628636715" x="0" y="0" width="60.014311104955794" height="60.014311104955794" class="image-svg-svg bn" style="overflow: visible;" fill="#FFFFFF"><g hollow-target="iconBnFill" mask="url(#9c7932d7-6eed-41e1-83c4-59834e097e85)" fill="#FFFFFF"><g fill="#FFFFFF"><svg xmlns="http://www.w3.org/2000/svg" viewBox="11.007 5 77.98601 90" style="overflow: visible;" width="60" height="69.24328628636715" x="0" y="0" filtersec="colorsf9786622740" filter="url(#DWrPy062qVmHbkrwssi48)" fill="#FFFFFF"><g transform="scale(1, 1) skewX(0)" fill="#FFFFFF"><path d="M50.043 5L11.05 27.462l-.043 44.999L49.957 95l38.992-22.464.044-44.999z" fill="#000000"></path></g><defs><filter id="DWrPy062qVmHbkrwssi48"><feColorMatrix type="matrix" values="0 0 0 0 0.99609375  0 0 0 0 0.99609375  0 0 0 0 0.99609375  0 0 0 1 0"></feColorMatrix></filter></defs></svg></g> <g filter="url(#colors4198028774)" fill="#FFFFFF"><svg xmlns="http://www.w3.org/2000/svg" viewBox="0 0.2999999999999998 89 102.1" width="50.4" height="58.1643594" x="4.800000000000001" y="5.539463443183575" class="image-svg-icon" fill="#FFFFFF"><path d="M24.6 89V57.7c0-11 19.9-19.9 19.9-19.9s19.9 8.9 19.9 19.9V89m-.1-16.2v-28c0-11-19.9-19.9-19.9-19.9s-19.9 8.9-19.9 19.9v28m39.8-11.1v-28c0-11-19.9-19.9-19.9-19.9s-19.9 8.9-19.9 19.9v28M2 75.9l42.5 24.5L87 75.9V26.8L44.5 2.3 2 26.8v49.1zm73.9-55.4v61.8M13.1 20.5v61.8" fill="none" stroke="#202121" stroke-width="4px" stroke-miterlimit="10"></path></svg></g></g><mask id="9c7932d7-6eed-41e1-83c4-59834e097e85" fill="#FFFFFF"><g fill="#FFFFFF"><svg xmlns="http://www.w3.org/2000/svg" viewBox="11.007 5 77.98601 90" style="overflow: visible;" width="60" height="69.24328628636715" x="0" y="0" filtersec="colorsf9786622740" fill="#FFFFFF"><g transform="scale(1, 1) skewX(0)" fill="#FFFFFF"><path d="M50.043 5L11.05 27.462l-.043 44.999L49.957 95l38.992-22.464.044-44.999z" fill="#FFFFFF"></path></g><defs></defs></svg></g> <g fill="black"><svg xmlns="http://www.w3.org/2000/svg" viewBox="0 0.2999999999999998 89 102.1" width="50.4" height="58.1643594" x="4.800000000000001" y="5.539463443183575" class="image-svg-icon"><path d="M24.6 89V57.7c0-11 19.9-19.9 19.9-19.9s19.9 8.9 19.9 19.9V89m-.1-16.2v-28c0-11-19.9-19.9-19.9-19.9s-19.9 8.9-19.9 19.9v28m39.8-11.1v-28c0-11-19.9-19.9-19.9-19.9s-19.9 8.9-19.9 19.9v28M2 75.9l42.5 24.5L87 75.9V26.8L44.5 2.3 2 26.8v49.1zm73.9-55.4v61.8M13.1 20.5v61.8" fill="none" stroke="#000000" stroke-width="4px" stroke-miterlimit="10"></path></svg></g></mask></svg>