<?xml version="1.0" encoding="UTF-8"?>
<svg id="Layer_1" data-name="Layer 1" xmlns="http://www.w3.org/2000/svg" viewBox="0 0 52 60.01">
  <defs>
    <style>
      .cls-1 {
        fill: #fff;
      }

      .cls-2 {
        fill: #567a82;
      }
    </style>
  </defs>
  <path class="cls-1" d="M26.03,0L.03,14.98l-.03,30.01,25.97,15.03,26-14.98,.03-30.01L26.03,0Z"/>
  <path class="cls-2" d="M26,55.21L4.16,42.62V17.39L26,4.8l21.84,12.59v25.23l-21.84,12.59Zm-8.79-7.33l8.79,5.06,8.79-5.07-.05-15.35c-.58-3.5-6.1-6.84-8.74-8.1-2.78,1.33-8.79,4.98-8.79,8.69v14.76Zm-5.64-3.25l3.68,2.12-.05-25.41c0-5.97,9.93-10.47,10.35-10.66l.4-.18,.4,.18c.42,.19,10.35,4.7,10.35,10.66v11.05c.03,.24,.05,.48,.05,.73v13.63l3.68-2.12V15.38L26,7.07,11.57,15.38v29.25Zm-5.45-3.14l3.49,2.01V16.52l-3.49,2.01v22.96ZM42.39,16.52v26.98l3.48-2.01V18.53l-3.48-2.01Zm-16.44,1.59c-2.78,1.33-8.79,4.98-8.79,8.69v1.72c2.91-3.54,8.13-5.91,8.43-6.05l.4-.18,.4,.18c.3,.13,5.41,2.46,8.34,5.93v-1.6c0-3.71-6-7.35-8.79-8.69Zm0-5.45c-2.78,1.33-8.79,4.98-8.79,8.69v.78c2.92-3.51,8.08-5.86,8.39-5.99l.4-.18,.4,.18c.3,.14,5.47,2.48,8.39,5.99v-.78c0-3.71-6-7.35-8.79-8.69Z"/>
</svg>